<svg version="1.1" xmlns="http://www.w3.org/2000/svg" viewBox="0 0 419 653" width="419" height="653">
  <!-- svg-source:excalidraw -->
  
  <defs>
    <style class="style-fonts">
      @font-face {
        font-family: "Virgil";
        src: url("https://cdn.jsdmirror.com/npm/@excalidraw/excalidraw@0.17.6/dist//dist/excalidraw-assets/Virgil.woff2");
      }
      @font-face {
        font-family: "Cascadia";
        src: url("https://cdn.jsdmirror.com/npm/@excalidraw/excalidraw@0.17.6/dist//dist/excalidraw-assets/Cascadia.woff2");
      }
      @font-face {
        font-family: "Assistant";
        src: url("https://cdn.jsdmirror.com/npm/@excalidraw/excalidraw@0.17.6/dist//dist/excalidraw-assets/Assistant-Regular.woff2");
      }
    </style>
    
  </defs>
  <rect x="0" y="0" width="419" height="653" fill="#ffffff"></rect><g stroke-linecap="round" transform="translate(140 10) rotate(0 69.5 19)"><path d="M9.5 0 C31.98 1.67, 56.85 5.18, 129.5 0 C138.45 0.18, 137.81 6.33, 139 9.5 C141.02 16.04, 141.4 19.81, 139 28.5 C136.14 34.88, 137.39 41.05, 129.5 38 C105.66 38.12, 79.92 37.31, 9.5 38 C3.38 38.59, -2.18 34.17, 0 28.5 C-0.97 24.71, 1.6 18.31, 0 9.5 C0.38 1.25, 5.85 1.25, 9.5 0" stroke="none" stroke-width="0" fill="#a5d8ff"></path><path d="M9.5 0 C43.71 -3.12, 80.63 0.53, 129.5 0 M9.5 0 C34.93 -0.55, 58.63 -0.23, 129.5 0 M129.5 0 C134.58 1.28, 137.57 2.57, 139 9.5 M129.5 0 C134.55 1.26, 136.76 1.96, 139 9.5 M139 9.5 C139.31 14.47, 139.75 21.84, 139 28.5 M139 9.5 C139.35 13.54, 138.45 18.21, 139 28.5 M139 28.5 C139.38 35.89, 135.36 37.8, 129.5 38 M139 28.5 C139.98 34.73, 136.95 38.41, 129.5 38 M129.5 38 C101.33 38.87, 70.53 38.4, 9.5 38 M129.5 38 C103.23 36.87, 77.38 36.83, 9.5 38 M9.5 38 C1.88 36.09, -1.95 36.08, 0 28.5 M9.5 38 C2.03 38.79, 0.76 36.6, 0 28.5 M0 28.5 C-0.77 23.22, -1.26 13, 0 9.5 M0 28.5 C0.69 21.85, 0.28 16.16, 0 9.5 M0 9.5 C0.36 2.32, 4.84 1.23, 9.5 0 M0 9.5 C0.61 4.19, 1.72 1.33, 9.5 0" stroke="#1e1e1e" stroke-width="2" fill="none"></path></g><g transform="translate(145.53005981445312 16.5) rotate(0 63.969940185546875 12.5)"><text x="63.969940185546875" y="0" font-family="Virgil, Segoe UI Emoji" font-size="20px" fill="#1e1e1e" text-anchor="middle" style="white-space: pre;" direction="ltr" dominant-baseline="text-before-edge">liquidateUser</text></g><g stroke-linecap="round" transform="translate(85.5 83.875) rotate(0 124 21)"><path d="M10.5 0 C93.17 2.74, 179.45 -1.71, 237.5 0 C247.63 3.05, 246.83 2.28, 248 10.5 C248.08 14.49, 246.51 27.51, 248 31.5 C248.44 37.55, 241.74 43.97, 237.5 42 C172.76 44.74, 101.84 41.21, 10.5 42 C1.75 39.97, -1.54 35.08, 0 31.5 C-3.67 23.71, -1.94 21.59, 0 10.5 C-0.68 6.76, 5.15 -0.65, 10.5 0" stroke="none" stroke-width="0" fill="#a5d8ff"></path><path d="M10.5 0 C57.89 -0.56, 104.15 0.2, 237.5 0 M10.5 0 C83.57 -0.94, 155.3 -2.12, 237.5 0 M237.5 0 C246.03 0.65, 247.13 4.32, 248 10.5 M237.5 0 C243.95 -1.34, 246.21 5.17, 248 10.5 M248 10.5 C246.2 13.92, 247.11 19.96, 248 31.5 M248 10.5 C247.91 14.74, 247.72 19.86, 248 31.5 M248 31.5 C246.73 37.38, 242.77 43.99, 237.5 42 M248 31.5 C249.26 39.39, 242.34 42.23, 237.5 42 M237.5 42 C146.83 41.95, 59.12 41.06, 10.5 42 M237.5 42 C168.6 42.24, 100.41 43.39, 10.5 42 M10.5 42 C4.76 42.52, 1.76 39.32, 0 31.5 M10.5 42 C2.87 42.4, 0.14 36.85, 0 31.5 M0 31.5 C-0.83 25.47, 1.16 20.48, 0 10.5 M0 31.5 C-0.33 24.07, -0.41 16.02, 0 10.5 M0 10.5 C1.3 2.81, 2.76 -0.05, 10.5 0 M0 10.5 C-1.22 3.36, 4.39 1.46, 10.5 0" stroke="#1e1e1e" stroke-width="2" fill="none"></path></g><g transform="translate(90.7500991821289 92.375) rotate(0 118.7499008178711 12.5)"><text x="118.7499008178711" y="0" font-family="Virgil, Segoe UI Emoji" font-size="20px" fill="#1e1e1e" text-anchor="middle" style="white-space: pre;" direction="ltr" dominant-baseline="text-before-edge">_validateLiquidationCall</text></g><g stroke-linecap="round" transform="translate(54.5 161.75) rotate(0 155 21)"><path d="M10.5 0 C120.8 1.5, 228.49 0.46, 299.5 0 C307.71 -1.89, 307.66 5.33, 310 10.5 C306.7 13.12, 308.66 19.37, 310 31.5 C309.26 37.55, 305.25 39.44, 299.5 42 C206.31 40.1, 118.07 43.26, 10.5 42 C3.03 39.29, -3.38 42.01, 0 31.5 C1.87 27.22, -3.76 19.53, 0 10.5 C-3.3 0.93, 2.04 -2.9, 10.5 0" stroke="none" stroke-width="0" fill="#a5d8ff"></path><path d="M10.5 0 C86.85 2.01, 160.47 0.48, 299.5 0 M10.5 0 C96.73 0.61, 182.91 -0.53, 299.5 0 M299.5 0 C305.95 -0.97, 311.15 3.91, 310 10.5 M299.5 0 C304.5 2, 311.95 2.75, 310 10.5 M310 10.5 C308.93 15.95, 308.36 20.67, 310 31.5 M310 10.5 C309.26 19.01, 310 26.57, 310 31.5 M310 31.5 C310.18 40.31, 308.08 41.6, 299.5 42 M310 31.5 C309.18 37.38, 305.2 41.01, 299.5 42 M299.5 42 C239.9 41.26, 179.91 41.99, 10.5 42 M299.5 42 C209.7 43.83, 118.67 43.79, 10.5 42 M10.5 42 C4.17 40.97, 1.61 39.87, 0 31.5 M10.5 42 C3.08 40.08, -1.48 38.36, 0 31.5 M0 31.5 C-1.6 27.21, -0.09 20.91, 0 10.5 M0 31.5 C0.18 25.77, -0.03 19.5, 0 10.5 M0 10.5 C-0.6 3.72, 4.15 0.84, 10.5 0 M0 10.5 C1.06 2.28, 1.55 -0.27, 10.5 0" stroke="#1e1e1e" stroke-width="2" fill="none"></path></g><g transform="translate(64.02012634277344 170.25) rotate(0 145.47987365722656 12.5)"><text x="145.47987365722656" y="0" font-family="Virgil, Segoe UI Emoji" font-size="20px" fill="#1e1e1e" text-anchor="middle" style="white-space: pre;" direction="ltr" dominant-baseline="text-before-edge">_calculateLiquidationAmounts</text></g><g stroke-linecap="round" transform="translate(73 239.625) rotate(0 136.5 20)"><path d="M10 0 C98.1 0.94, 185.83 4.33, 263 0 C272.55 -2.3, 276.09 0.43, 273 10 C269.75 19.88, 274.14 23.63, 273 30 C276.3 38.16, 269.19 38.84, 263 40 C210.97 39.33, 160.04 44.45, 10 40 C2.47 42.48, -2.22 36.49, 0 30 C-2.88 26.03, -1.95 18.52, 0 10 C0.2 0.66, 4.75 -0.35, 10 0" stroke="none" stroke-width="0" fill="#a5d8ff"></path><path d="M10 0 C64.97 2.05, 123.27 1.39, 263 0 M10 0 C66.59 -1.47, 123.12 -1.53, 263 0 M263 0 C270.36 -1.95, 272.49 1.5, 273 10 M263 0 C268.03 -0.93, 271.15 3.3, 273 10 M273 10 C273.59 14.59, 273.04 18.58, 273 30 M273 10 C272.4 17.62, 272.06 25.02, 273 30 M273 30 C273.38 38.25, 270.88 40.49, 263 40 M273 30 C272.67 34.94, 270.04 39.02, 263 40 M263 40 C197.07 38.03, 132.11 38.59, 10 40 M263 40 C189.67 40.24, 116.55 39.51, 10 40 M10 40 C1.93 41, -0.77 35.62, 0 30 M10 40 C3.24 40.14, 1.52 37.14, 0 30 M0 30 C-1.15 23.82, -0.84 18.49, 0 10 M0 30 C-0.19 26.3, 0.03 20.75, 0 10 M0 10 C-1.41 4.9, 4.78 1.8, 10 0 M0 10 C-1.73 3.88, 2.02 1.9, 10 0" stroke="#1e1e1e" stroke-width="2" fill="none"></path></g><g transform="translate(83.55010986328125 247.125) rotate(0 125.94989013671875 12.5)"><text x="125.94989013671875" y="0" font-family="Virgil, Segoe UI Emoji" font-size="20px" fill="#1e1e1e" text-anchor="middle" style="white-space: pre;" direction="ltr" dominant-baseline="text-before-edge">calculateLiquidationBonus</text></g><g stroke-linecap="round" transform="translate(65 315.5) rotate(0 144.50000000000006 17.5)"><path d="M8.75 0 C95.85 -1.46, 186.47 -2.49, 280.25 0 C287.17 -2.02, 292.45 4.77, 289 8.75 C287.1 13.14, 287.73 19.09, 289 26.25 C289.16 32.24, 288.98 32.15, 280.25 35 C209.37 39.77, 138.1 39.03, 8.75 35 C0.18 32.42, 0.36 31.62, 0 26.25 C2.77 20.74, 1.95 18.05, 0 8.75 C3.03 3.96, 5.84 1.4, 8.75 0" stroke="none" stroke-width="0" fill="#a5d8ff"></path><path d="M8.75 0 C67.38 2.26, 124.62 0.71, 280.25 0 M8.75 0 C113.67 -0.68, 217.6 0.17, 280.25 0 M280.25 0 C286.68 0.32, 290.83 3.75, 289 8.75 M280.25 0 C285.78 -0.74, 286.8 2.68, 289 8.75 M289 8.75 C289.19 16.47, 288.56 21.96, 289 26.25 M289 8.75 C289.05 12.53, 288.3 17.55, 289 26.25 M289 26.25 C287.93 32.21, 286.2 33.52, 280.25 35 M289 26.25 C289.91 31.86, 284.34 33.62, 280.25 35 M280.25 35 C203.38 37.22, 126.13 38.22, 8.75 35 M280.25 35 C176.36 36.92, 72.96 35.83, 8.75 35 M8.75 35 C3.95 35.43, 0.07 30.26, 0 26.25 M8.75 35 C4.85 33.12, 1.57 30.27, 0 26.25 M0 26.25 C-1.13 19.42, 1.57 15.88, 0 8.75 M0 26.25 C0.72 22.06, -0.76 18.83, 0 8.75 M0 8.75 C-1.48 4.13, 4.66 -0.96, 8.75 0 M0 8.75 C1.85 1.43, 2.74 0.07, 8.75 0" stroke="#1e1e1e" stroke-width="2" fill="none"></path></g><g transform="translate(73.23011779785156 320.5) rotate(0 136.26988220214844 12.5)"><text x="136.26988220214844" y="0" font-family="Virgil, Segoe UI Emoji" font-size="20px" fill="#1e1e1e" text-anchor="middle" style="white-space: pre;" direction="ltr" dominant-baseline="text-before-edge">_calculateDebtToLiquidate</text></g><g stroke-linecap="round" transform="translate(10 386.375) rotate(0 199.5 20)"><path d="M10 0 C98.45 2.17, 185.75 1.82, 389 0 C392.76 -0.03, 395.98 6.06, 399 10 C399.06 15.63, 396.66 27.52, 399 30 C401.09 38.14, 394.65 42.58, 389 40 C311.79 38.48, 234.81 40.02, 10 40 C5.92 39.62, 2.7 40.04, 0 30 C-1.69 24.72, 3.13 20.87, 0 10 C-3.59 -0.16, 5.74 0.12, 10 0" stroke="none" stroke-width="0" fill="#a5d8ff"></path><path d="M10 0 C153.11 -1.25, 297.16 -1.51, 389 0 M10 0 C124.92 -2.08, 241.34 -1.36, 389 0 M389 0 C395.08 1.28, 397.54 4.09, 399 10 M389 0 C393.92 -1.65, 399.23 3.04, 399 10 M399 10 C401.16 16, 400.64 23.8, 399 30 M399 10 C399.45 17.74, 399.06 24.45, 399 30 M399 30 C398.82 37.94, 394.85 41.55, 389 40 M399 30 C399.31 36.78, 393.59 41.32, 389 40 M389 40 C299.05 39.82, 208.17 40.21, 10 40 M389 40 C260.27 39.35, 132.69 38.53, 10 40 M10 40 C3.53 41.41, 0.3 35.45, 0 30 M10 40 C4.96 38.94, 0.66 34.37, 0 30 M0 30 C-0.3 23.42, -2.02 15.34, 0 10 M0 30 C0.42 24.75, -0.66 20.71, 0 10 M0 10 C-0.11 2.13, 5.02 -0.55, 10 0 M0 10 C-0.65 2.37, 3.11 1.6, 10 0" stroke="#1e1e1e" stroke-width="2" fill="none"></path></g><g transform="translate(19.2901611328125 393.875) rotate(0 190.2098388671875 12.5)"><text x="190.2098388671875" y="0" font-family="Virgil, Segoe UI Emoji" font-size="20px" fill="#1e1e1e" text-anchor="middle" style="white-space: pre;" direction="ltr" dominant-baseline="text-before-edge">_calculateDebtToTargetHealthFactor</text></g><g stroke-linecap="round" transform="translate(116.5 608) rotate(0 93 17.5)"><path d="M8.75 0 C49.68 3.4, 92.83 2.09, 177.25 0 C183.58 -1.72, 188.8 3.27, 186 8.75 C184 11.1, 186.92 19.19, 186 26.25 C187.45 29.36, 185.01 31.67, 177.25 35 C131.12 32.9, 76.42 33.3, 8.75 35 C5.16 35.51, -1.72 30.61, 0 26.25 C1.42 22.61, -1.88 15.58, 0 8.75 C2.19 5.44, 1.23 2.97, 8.75 0" stroke="none" stroke-width="0" fill="#a5d8ff"></path><path d="M8.75 0 C53.2 -2.35, 98.68 -0.12, 177.25 0 M8.75 0 C45.03 -0.27, 80.15 -0.56, 177.25 0 M177.25 0 C181.96 -0.35, 184.42 1.56, 186 8.75 M177.25 0 C183.68 -2.13, 184.27 4.59, 186 8.75 M186 8.75 C184.73 14.24, 185.66 21.92, 186 26.25 M186 8.75 C185.66 13.8, 185.26 18.56, 186 26.25 M186 26.25 C187.77 33.11, 183 36.93, 177.25 35 M186 26.25 C184.47 30.94, 185.08 33.31, 177.25 35 M177.25 35 C124 34.1, 69.64 34.8, 8.75 35 M177.25 35 C113.01 33.38, 47.59 33.88, 8.75 35 M8.75 35 C4.49 34.94, 0.88 30.68, 0 26.25 M8.75 35 C2.87 33.96, 0.77 30.87, 0 26.25 M0 26.25 C-0.03 19.8, 0.35 16.75, 0 8.75 M0 26.25 C-0.08 21.79, -0.36 17.73, 0 8.75 M0 8.75 C-0.68 4.58, 3.96 1.6, 8.75 0 M0 8.75 C0.1 4.98, 3.15 -0.91, 8.75 0" stroke="#1e1e1e" stroke-width="2" fill="none"></path></g><g transform="translate(124.59008026123047 613) rotate(0 84.90991973876953 12.5)"><text x="84.90991973876953" y="0" font-family="Virgil, Segoe UI Emoji" font-size="20px" fill="#1e1e1e" text-anchor="middle" style="white-space: pre;" direction="ltr" dominant-baseline="text-before-edge">_evaluateDeficit</text></g><g stroke-linecap="round" transform="translate(100 462.25) rotate(0 109.5 19.5)"><path d="M9.75 0 C78.16 1.75, 143.22 -1, 209.25 0 C215.45 2.26, 221.38 4.2, 219 9.75 C220.78 14.41, 221.53 20.51, 219 29.25 C221.15 36.24, 216.29 37.25, 209.25 39 C138.49 40.95, 69.25 44.83, 9.75 39 C5.69 42.42, -1.13 38.52, 0 29.25 C0.19 24.11, 0.29 19.54, 0 9.75 C2.38 3.87, 1.43 2.29, 9.75 0" stroke="none" stroke-width="0" fill="#a5d8ff"></path><path d="M9.75 0 C85.15 -0.62, 162.61 -0.89, 209.25 0 M9.75 0 C61.48 -1.5, 115.72 -1.09, 209.25 0 M209.25 0 C217.51 -0.28, 220.27 3.23, 219 9.75 M209.25 0 C217.43 -0.53, 218 3.96, 219 9.75 M219 9.75 C218.85 17.02, 219.78 21.92, 219 29.25 M219 9.75 C218.26 17, 218.16 23.38, 219 29.25 M219 29.25 C219.81 37.01, 214.67 39.23, 209.25 39 M219 29.25 C217.36 37.46, 216.56 39.54, 209.25 39 M209.25 39 C160.76 40.52, 109.86 42.01, 9.75 39 M209.25 39 C133.46 38.03, 55.04 39.5, 9.75 39 M9.75 39 C3.78 37.33, -0.94 35.74, 0 29.25 M9.75 39 C3.69 40.89, 1.5 36, 0 29.25 M0 29.25 C-1.12 24.48, -1.24 20.78, 0 9.75 M0 29.25 C-0.54 24.02, 0.11 19.21, 0 9.75 M0 9.75 C0.7 1.84, 3.19 -1.19, 9.75 0 M0 9.75 C0.95 1.22, 3.07 -0.56, 9.75 0" stroke="#1e1e1e" stroke-width="2" fill="none"></path></g><g transform="translate(110.98008728027344 469.25) rotate(0 98.51991271972656 12.5)"><text x="98.51991271972656" y="0" font-family="Virgil, Segoe UI Emoji" font-size="20px" fill="#1e1e1e" text-anchor="middle" style="white-space: pre;" direction="ltr" dominant-baseline="text-before-edge">_liquidateCollateral</text></g><g stroke-linecap="round" transform="translate(126.5 537.125) rotate(0 83 17.5)"><path d="M8.75 0 C59.21 -0.22, 105.71 -0.15, 157.25 0 C159.8 -0.72, 167.41 0.89, 166 8.75 C168.26 15.37, 169.15 20.12, 166 26.25 C167.84 28.61, 164.92 37.22, 157.25 35 C102.69 30.67, 39.45 35.92, 8.75 35 C-0.26 31.87, -2.63 35.3, 0 26.25 C0.6 21.04, 1.57 17.35, 0 8.75 C-1.78 5.67, 4.11 1.73, 8.75 0" stroke="none" stroke-width="0" fill="#a5d8ff"></path><path d="M8.75 0 C58.82 -0.73, 106.26 0.61, 157.25 0 M8.75 0 C65.39 0.45, 122.51 0.16, 157.25 0 M157.25 0 C162.92 -0.49, 166.66 1.14, 166 8.75 M157.25 0 C162.96 1.27, 167 3.33, 166 8.75 M166 8.75 C167.14 13.88, 164.93 18.74, 166 26.25 M166 8.75 C166.68 14.93, 166.6 20.53, 166 26.25 M166 26.25 C166.3 31.11, 164.09 34.37, 157.25 35 M166 26.25 C168.12 31.54, 162.22 34.9, 157.25 35 M157.25 35 C101.65 37.95, 45.72 34.47, 8.75 35 M157.25 35 C126.68 34.34, 96.79 34.82, 8.75 35 M8.75 35 C1.9 36.27, 1.69 31.51, 0 26.25 M8.75 35 C4.74 35.9, 0.06 30.02, 0 26.25 M0 26.25 C0.69 19.01, -1.05 12.09, 0 8.75 M0 26.25 C0.33 21.11, -0.37 17.41, 0 8.75 M0 8.75 C-0.22 2.2, 0.95 -1.64, 8.75 0 M0 8.75 C-0.93 1.17, 4.39 1.47, 8.75 0" stroke="#1e1e1e" stroke-width="2" fill="none"></path></g><g transform="translate(135.61006927490234 542.125) rotate(0 73.88993072509766 12.5)"><text x="73.88993072509766" y="0" font-family="Virgil, Segoe UI Emoji" font-size="20px" fill="#1e1e1e" text-anchor="middle" style="white-space: pre;" direction="ltr" dominant-baseline="text-before-edge">_liquidateDebt</text></g><g stroke-linecap="round"><g transform="translate(207 52) rotate(0 -0.5 12.5)"><path d="M-0.36 -0.12 C-0.39 4.18, -0.44 21.31, -0.58 25.5 M0.46 -0.66 C0.42 3.53, -0.44 20.41, -0.8 24.79" stroke="#1e1e1e" stroke-width="2" fill="none"></path></g><g transform="translate(207 52) rotate(0 -0.5 12.5)"><path d="M-4.32 12.78 C-3.67 16.06, -2.15 18.11, -0.8 24.79 M-4.32 12.78 C-3.48 16.29, -2.31 20.02, -0.8 24.79" stroke="#1e1e1e" stroke-width="2" fill="none"></path></g><g transform="translate(207 52) rotate(0 -0.5 12.5)"><path d="M4.22 13.33 C2.89 16.45, 2.42 18.37, -0.8 24.79 M4.22 13.33 C2.5 16.66, 1.11 20.23, -0.8 24.79" stroke="#1e1e1e" stroke-width="2" fill="none"></path></g></g><mask></mask><g stroke-linecap="round"><g transform="translate(209 133) rotate(0 0 12.5)"><path d="M-0.21 0.48 C-0.16 4.71, 0.1 21.16, 0.15 25.21 M0.68 0.26 C0.69 4.33, -0.05 20.18, -0.2 24.35" stroke="#1e1e1e" stroke-width="2" fill="none"></path></g><g transform="translate(209 133) rotate(0 0 12.5)"><path d="M-3.99 12.43 C-2.42 15.86, -1.71 19.05, -0.2 24.35 M-3.99 12.43 C-2.91 15.69, -1.74 18.6, -0.2 24.35" stroke="#1e1e1e" stroke-width="2" fill="none"></path></g><g transform="translate(209 133) rotate(0 0 12.5)"><path d="M4.55 12.79 C3.79 16.1, 2.18 19.19, -0.2 24.35 M4.55 12.79 C3.4 15.95, 2.34 18.78, -0.2 24.35" stroke="#1e1e1e" stroke-width="2" fill="none"></path></g></g><mask></mask><g stroke-linecap="round"><g transform="translate(210 213) rotate(0 -0.5 10.5)"><path d="M-0.42 0.33 C-0.5 3.95, -0.77 17.76, -0.93 21.29 M0.36 0.02 C0.27 3.53, -1.22 17.02, -1.33 20.47" stroke="#1e1e1e" stroke-width="2" fill="none"></path></g><g transform="translate(210 213) rotate(0 -0.5 10.5)"><path d="M-4.18 10.35 C-3.31 12.57, -2.75 14.28, -1.33 20.47 M-4.18 10.35 C-2.94 14.29, -1.81 18.33, -1.33 20.47" stroke="#1e1e1e" stroke-width="2" fill="none"></path></g><g transform="translate(210 213) rotate(0 -0.5 10.5)"><path d="M2.99 10.88 C2.35 12.96, 1.4 14.56, -1.33 20.47 M2.99 10.88 C1.43 14.65, -0.24 18.48, -1.33 20.47" stroke="#1e1e1e" stroke-width="2" fill="none"></path></g></g><mask></mask><g stroke-linecap="round"><g transform="translate(213 285) rotate(0 0 12.5)"><path d="M0.29 -0.31 C0.41 3.79, 0.5 20.64, 0.53 24.83 M-0.22 0.73 C-0.11 4.88, 0.28 21.34, 0.37 25.44" stroke="#1e1e1e" stroke-width="2" fill="none"></path></g><g transform="translate(213 285) rotate(0 0 12.5)"><path d="M-4.17 13.8 C-3.3 17.45, -1.95 20.43, 0.37 25.44 M-4.17 13.8 C-2.9 16.71, -1.84 20.03, 0.37 25.44" stroke="#1e1e1e" stroke-width="2" fill="none"></path></g><g transform="translate(213 285) rotate(0 0 12.5)"><path d="M4.37 13.6 C3 17.33, 2.1 20.36, 0.37 25.44 M4.37 13.6 C3.36 16.6, 2.13 19.98, 0.37 25.44" stroke="#1e1e1e" stroke-width="2" fill="none"></path></g></g><mask></mask><g stroke-linecap="round"><g transform="translate(213 359) rotate(0 0 10)"><path d="M-0.21 -0.53 C-0.11 2.73, 0.33 16.56, 0.31 20.06 M0.69 0.39 C0.77 3.98, 0.29 17.59, 0.04 20.79" stroke="#1e1e1e" stroke-width="2" fill="none"></path></g><g transform="translate(213 359) rotate(0 0 10)"><path d="M-2.89 11.23 C-2.61 13.88, -1.35 15.69, 0.04 20.79 M-2.89 11.23 C-2.01 15.08, -0.87 18.36, 0.04 20.79" stroke="#1e1e1e" stroke-width="2" fill="none"></path></g><g transform="translate(213 359) rotate(0 0 10)"><path d="M3.94 11.58 C2.53 14.13, 2.1 15.85, 0.04 20.79 M3.94 11.58 C2.23 15.33, 0.77 18.47, 0.04 20.79" stroke="#1e1e1e" stroke-width="2" fill="none"></path></g></g><mask></mask><g stroke-linecap="round"><g transform="translate(210 431) rotate(0 0 12)"><path d="M-0.28 0.11 C-0.35 4.24, -0.29 20.44, -0.16 24.5 M0.58 -0.3 C0.4 3.7, -0.65 19.8, -0.67 23.79" stroke="#1e1e1e" stroke-width="2" fill="none"></path></g><g transform="translate(210 431) rotate(0 0 12)"><path d="M-4.33 12.36 C-2.95 16.18, -1.26 20.91, -0.67 23.79 M-4.33 12.36 C-2.96 16.79, -1.61 21.05, -0.67 23.79" stroke="#1e1e1e" stroke-width="2" fill="none"></path></g><g transform="translate(210 431) rotate(0 0 12)"><path d="M3.88 12.68 C2.4 16.36, 1.24 20.99, -0.67 23.79 M3.88 12.68 C2.06 17.02, 0.22 21.16, -0.67 23.79" stroke="#1e1e1e" stroke-width="2" fill="none"></path></g></g><mask></mask><g stroke-linecap="round"><g transform="translate(209 511) rotate(0 0 10.5)"><path d="M-0.22 -0.15 C-0.2 3.28, 0.11 17.47, 0.23 20.91 M0.67 -0.7 C0.63 2.79, -0.05 17.98, -0.09 21.57" stroke="#1e1e1e" stroke-width="2" fill="none"></path></g><g transform="translate(209 511) rotate(0 0 10.5)"><path d="M-3.38 11.6 C-2.44 15.02, -1.32 18.49, -0.09 21.57 M-3.38 11.6 C-2.98 13.37, -2.17 15.78, -0.09 21.57" stroke="#1e1e1e" stroke-width="2" fill="none"></path></g><g transform="translate(209 511) rotate(0 0 10.5)"><path d="M3.8 11.81 C2.44 15.15, 1.25 18.55, -0.09 21.57 M3.8 11.81 C2.73 13.56, 2.07 15.92, -0.09 21.57" stroke="#1e1e1e" stroke-width="2" fill="none"></path></g></g><mask></mask><g stroke-linecap="round"><g transform="translate(208 579) rotate(0 0.5 11)"><path d="M0.44 -0.49 C0.56 3.15, 0.32 18.59, 0.45 22.26 M0 0.45 C0.3 3.88, 1.24 17.86, 1.4 21.42" stroke="#1e1e1e" stroke-width="2" fill="none"></path></g><g transform="translate(208 579) rotate(0 0.5 11)"><path d="M-2.96 11.31 C-2.3 13.31, -0.45 16.62, 1.4 21.42 M-2.96 11.31 C-2.11 13.67, -0.91 15.56, 1.4 21.42" stroke="#1e1e1e" stroke-width="2" fill="none"></path></g><g transform="translate(208 579) rotate(0 0.5 11)"><path d="M4.56 10.87 C3.31 13.01, 3.26 16.44, 1.4 21.42 M4.56 10.87 C3.86 13.3, 3.52 15.27, 1.4 21.42" stroke="#1e1e1e" stroke-width="2" fill="none"></path></g></g><mask></mask></svg>